<svg viewBox="0 0 1438.91 697.91" id="a" xmlns:xlink="http://www.w3.org/1999/xlink" xmlns="http://www.w3.org/2000/svg"><defs><style>.f{fill:#fff;}.g{fill:url(#c);}.h{fill:url(#b);}.i{fill:#f7c586;}.j{fill:url(#d);}.k{fill:url(#e);}</style><linearGradient gradientUnits="userSpaceOnUse" gradientTransform="matrix(1, 0, 0, 1, 0, 0)" y2="198.18" x2="1307.14" y1="198.18" x1="1107.01" id="b"><stop stop-color="#be8550" offset="0"></stop><stop stop-color="#c28a53" offset=".03"></stop><stop stop-color="#ddad69" offset=".23"></stop><stop stop-color="#edc377" offset=".39"></stop><stop stop-color="#f4cb7c" offset=".49"></stop><stop stop-color="#efc478" offset=".6"></stop><stop stop-color="#e1b36d" offset=".75"></stop><stop stop-color="#cb965b" offset=".91"></stop><stop stop-color="#be8550" offset="1"></stop></linearGradient><linearGradient gradientUnits="userSpaceOnUse" gradientTransform="matrix(1, 0, 0, 1, 0, 0)" y2="71.51" x2="1205.73" y1="71.51" x1="468.1" id="c"><stop stop-color="#c6914f" offset="0"></stop><stop stop-color="#c6914f" offset="0"></stop><stop stop-color="#e1b065" offset=".2"></stop><stop stop-color="#f2c473" offset=".37"></stop><stop stop-color="#f8cb78" offset=".49"></stop><stop stop-color="#f5c875" offset=".63"></stop><stop stop-color="#eebf6b" offset=".74"></stop><stop stop-color="#e1af5b" offset=".84"></stop><stop stop-color="#d09a44" offset=".93"></stop><stop stop-color="#bf862f" offset="1"></stop></linearGradient><linearGradient gradientUnits="userSpaceOnUse" gradientTransform="matrix(1, 0, 0, 1, 0, 0)" y2="223.64" x2="893.49" y1="223.64" x1="13.26" id="d"><stop stop-color="#b2751c" offset="0"></stop><stop stop-color="#c48d39" offset=".03"></stop><stop stop-color="#d4a353" offset=".06"></stop><stop stop-color="#e2b569" offset=".1"></stop><stop stop-color="#edc37a" offset=".15"></stop><stop stop-color="#f4cd86" offset=".2"></stop><stop stop-color="#f8d38d" offset=".28"></stop><stop stop-color="#fad58f" offset=".5"></stop><stop stop-color="#f7d28d" offset=".64"></stop><stop stop-color="#eec887" offset=".74"></stop><stop stop-color="#dfb87e" offset=".83"></stop><stop stop-color="#cba271" offset=".91"></stop><stop stop-color="#b08661" offset=".98"></stop><stop stop-color="#aa7f5d" offset="1"></stop></linearGradient><linearGradient gradientUnits="userSpaceOnUse" gradientTransform="matrix(1, 0, 0, 1, 0, 0)" y2="234.26" x2="421.72" y1="234.26" x1="70.4" id="e"><stop stop-color="#dda642" offset="0"></stop><stop stop-color="#e5b560" offset=".04"></stop><stop stop-color="#ecc37a" offset=".08"></stop><stop stop-color="#f2cf90" offset=".12"></stop><stop stop-color="#f6d8a1" offset=".18"></stop><stop stop-color="#f9dead" offset=".24"></stop><stop stop-color="#fbe2b4" offset=".34"></stop><stop stop-color="#fce3b6" offset=".6"></stop><stop stop-color="#dda642" offset="1"></stop></linearGradient></defs><path style="fill:#fff;" d="M1374.56,143.79c-.93,2.84,7.01,12.21,8.55,14.86,3.37,5.82,6.54,11.91,8.1,18.51,1.12,4.77,.34,11.9,.34,11.9,0,0-17.02-16.08-21.53-19.56-8.78-6.78-18.33-12.46-28.33-17.23-105.34-50.33-236.44-54.89-349.01-31.03-2.93,.62-5.86,1.26-8.78,1.92,44.26-10.06,86.72-19.96,132.39-21.73,44.8-1.74,90.15,2.39,134.27,9.72,25.39,4.22,50.6,9.79,76.24,12.31,24.34,2.38,53.56-1.71,77.66-4.99-1.9,1.13-10.71,8.59-10.71,8.59-5.8,4.91-11.58,9.85-17.47,14.67-.7,.57-1.44,1.2-1.72,2.06Z"></path><path style="fill:url(#b);" d="M1307.14,236.83c-1.82-2.77-88.98-133.39-200.13-4.06,1-1.71,98.54-166.57,200.13,4.06Z"></path><path style="fill:#fff;" d="M1204.96,134.24c-22.06-3-45.01-2.33-66.95-.95-22.65,1.43-45.17,4.47-67.51,8.39-44.46,7.8-88.12,19.08-132.17,28.76-53.83,11.84-108.83,20.93-164.13,18.68,46.39-5.1,92.3-13.97,137.66-24.86,52.46-12.59,104.01-30.8,157.64-37.85,45.18-5.93,91.18-2.57,135.46,7.83Z"></path><path style="fill:url(#c);" d="M1205.73,93.72c-11.73-.72-23.34-2.37-35.03-3.5-13.76-1.33-27.57-2.13-41.39-2.41-27.14-.56-54.32,1.08-81.31,3.77-9.11,.9-18.21,1.95-27.29,3.12-50.59,6.5-100.58,17.78-149,33.79-4.05,1.34-9.32,2.03-13.09,3.79,24.16-11.54,48.72-22.3,73.82-31.65,24.46-9.1,50.68-18.93,76.6-22.8,.97-.14,2-.14,2.98-.28-13.83-6.59-28.17-12.22-42.5-17.63-33.88-12.77-68.64-23.4-104.01-31.23-52.1-11.52-108.15-18.49-161.16-9.22-13.04,2.28-25.69,5.71-38.24,9.83-24.53,8.05-48.18,18.62-70.95,30.73-4.33,2.3-8.63,4.66-12.9,7.07-39.82,22.47-77.04,49.22-114.16,75.92,43.41-33.71,87.77-66.18,133-97.39,2.86-1.97,25.51-19.21,26.94-18.15-4.78-4.1-9.56-8.21-14.34-12.32C649.24,3.89,686.84,.61,724.12,.08c55.27-.78,110.49,4.34,165.04,12.92,54.23,8.54,107.94,20.27,161.02,34.21,32.27,8.47,64.33,17.75,96.2,27.61,19.9,6.16,40.06,10.91,59.35,18.9Z"></path><path style="fill:#fff;" d="M432.96,138.82l-54.13-8.17S557.55,30.57,597.38,20.36l-196.09,108.26,31.66,10.21Z"></path><path style="fill:url(#d);" d="M893.49,131.78c-26.03,7.1-51.79,15.01-78.01,21.48-105.39,26.01-216.98,42.37-325.27,26.63-47.73-6.93-94.37-19.48-142.74-21.8-47.21-2.26-94.81,3.36-140.24,16.35-32.86,9.4-64.66,22.74-93.97,40.39-26.42,15.9-57.34,37.02-75.12,62.68,1.34,1.36,2.99,2.25,4.69,3.27,7.15,19.41,4.09,34.73,4.09,34.73l-9.2-26.56H17.3c-9.61-6.41,.16-12.84,6.17-19.65,59.17-67.02,149.1-107.02,236.27-121.1,.09-.02,.18-.03,.27-.05,105.56-17.07,209.68,21.74,314.92,23.81,107.15,2.11,215.22-12.02,318.56-40.18Z"></path><path style="fill:url(#e);" d="M196.26,301.3c4.3-12.28,8.26-24.73,13.77-36.54,16.27-34.88,42.66-70.44,82.42-78.96,31.12-6.67,66.45,1.94,92.39,19.75,14.78,10.14,27.1,23.5,36.88,38.47-20.38-31.19-47.62-62.45-84.6-73.33-34.74-10.22-73.64,1.11-99.04,26.36-23.52,23.38-37.85,49.02-70.33,61.28-31.05,11.72-64.32,17.33-97.35,19.39,21.41-1,42.81-2.23,64.19-3.7,18.8-1.29,37.32-3.36,56.05-5.7,1.19-.15,2.43-.3,3.58,.07,2.85,.9,3.87,4.36,4.25,7.32,1.08,8.67,.29,17.54-2.31,25.88l.1-.28Z"></path><path style="fill:#fff;" d="M1036.5,223.6c-25.96,3.67-52.79,3.26-79.12,2.61-28.05-.69-56.06-2.54-83.99-5.13-55.01-5.1-109.48-15.16-164.38-20.41-41.64-3.99-83.54-6.61-125.38-4.5-24.76,1.25-49.47,4.19-73.72,9.43-24.24,5.23-48.94,11.85-70.96,23.48,61.16-21.1,127.02-25.36,191.63-22.12,55.83,2.8,111.17,11.05,166.54,18.23,54.25,7.04,110.23,12.11,165.02,9.9,6.41-.26,12.82-.64,19.22-1.16,8.19-.66,16.41-1.5,24.53-2.79,10.47-1.56,20.98-3.1,30.59-7.55Z"></path><g><path style="fill:#f7c586;" d="M67.12,478.5l-15.65,58.54H4.64l26.19-97.93c9.86-36.9,36.79-55.35,80.79-55.35h108.57l-9.58,36.19H101.93c-12.77,0-20.86,6.39-24.27,19.16l-.85,3.19h127.73l-9.69,36.19H67.12Z"></path><path style="fill:#f7c586;" d="M216.6,534.92l20.27-115.54h40.98l-20.27,115.54h-40.98Zm35.53-124.7c-4.22,0-7.27-.58-9.16-1.74-1.89-1.16-2.83-3.12-2.83-5.89,0-.58,.03-1.16,.11-1.74,.07-.58,.18-1.23,.33-1.96l1.74-10.9c.73-4.07,2.25-6.9,4.58-8.5,2.32-1.6,6.03-2.4,11.12-2.4h13.52c4.36,0,7.48,.54,9.37,1.63,1.89,1.09,2.83,3.02,2.83,5.78,0,.44-.04,.95-.11,1.53-.07,.58-.18,1.24-.33,1.96l-1.74,10.9c-.73,4.22-2.29,7.16-4.69,8.83-2.4,1.67-6.14,2.51-11.23,2.51h-13.52Z"></path><path style="fill:#f7c586;" d="M418.03,525.11c-3.49,4.07-7.49,7.38-11.99,9.92-4.51,2.54-10.39,3.81-17.66,3.81s-12.72-1.24-16.35-3.71c-3.63-2.47-6.54-5.81-8.72-10.03l-55.15-108.35h46.65c7.55,14.68,14.5,28.74,20.82,42.18,6.32,13.44,12.61,27.36,18.86,41.75,11.19-14.39,22.38-28.3,33.57-41.75,11.19-13.44,23.03-27.5,35.53-42.18h48.4l-93.96,108.35Z"></path><path style="fill:#f7c586;" d="M557.55,489.14c-.73,4.22-1.2,6.94-1.42,8.17-.22,1.24-.33,2.15-.33,2.73,0,2.18,.69,3.67,2.07,4.47,1.38,.8,3.89,1.2,7.52,1.2h41.2l-5.01,29.21h-39.02c-16.28,0-28.12-2.54-35.53-7.63-7.41-5.09-11.12-13.22-11.12-24.42,0-1.02,.03-2.18,.11-3.49,.07-1.31,.33-3.34,.76-6.1,.44-2.76,1.05-6.54,1.85-11.34,.8-4.8,1.92-11.19,3.38-19.18,1.45-8.57,3.56-15.8,6.32-21.69,2.76-5.89,6.54-10.61,11.34-14.17,4.8-3.56,10.86-6.14,18.2-7.74,7.34-1.6,16.31-2.4,26.92-2.4h57.55c7.41,0,13.66,.58,18.75,1.74,5.09,1.17,9.16,2.76,12.21,4.8,3.05,2.04,5.23,4.54,6.54,7.52,1.31,2.98,1.96,6.29,1.96,9.92,0,.73-.04,1.6-.11,2.62-.08,1.02-.36,3.13-.87,6.32-.51,3.2-1.27,7.89-2.29,14.06-1.02,6.18-2.47,14.64-4.36,25.4h-116.63Zm80.66-24.2c.58-3.05,1.02-5.45,1.31-7.19,.29-1.74,.51-3.12,.65-4.14,.14-1.01,.22-1.67,.22-1.96v-.87c0-1.74-.54-2.94-1.64-3.6-1.09-.65-2.94-.98-5.56-.98h-52.76c-5.67,0-9.85,1.02-12.53,3.05-2.69,2.04-4.47,5.6-5.34,10.68l-.87,5.01h76.52Z"></path><path style="fill:#f7c586;" d="M868.39,478.5c-33.78,0-50.67-10.36-50.67-31.08,0-4.19,.67-8.73,2.02-13.62l1.38-5.32c7.95-29.8,32.15-44.71,72.6-44.71h135.19l-9.69,36.19h-135.19c-9.23,0-14.58,2.84-16.07,8.52l-1.38,5.32c-.21,.85-.32,1.6-.32,2.24,0,4.19,3.94,6.28,11.82,6.28h74.51c33.78,0,50.67,10.4,50.67,31.19,0,4.12-.64,8.62-1.92,13.52l-1.49,5.32c-7.95,29.8-32.15,44.71-72.6,44.71h-135.08l9.58-36.19h135.19c9.22,0,14.58-2.84,16.07-8.52l1.49-5.32c.21-.78,.32-1.53,.32-2.24,0-4.19-3.97-6.28-11.92-6.28h-74.51Z"></path><path style="fill:#f7c586;" d="M1032.51,534.92l15.04-86.11h-16.79l5.45-30.52,16.79-.22,6.1-34.66h40.98l-6.1,34.44h37.93l-5.45,30.96h-37.93l-15.04,86.11h-40.98Z"></path><path style="fill:#f7c586;" d="M1172.9,534.92c-7.41,0-13.66-.54-18.75-1.63-5.09-1.09-9.16-2.65-12.21-4.69-3.05-2.03-5.27-4.5-6.65-7.41-1.38-2.91-2.07-6.17-2.07-9.81,0-.58,.03-1.27,.11-2.07,.07-.8,.18-1.89,.33-3.27,.14-1.38,.4-3.16,.76-5.34,.36-2.18,.91-5.01,1.63-8.5,.87-4.94,2.29-9.34,4.25-13.19,1.96-3.85,4.72-7.08,8.28-9.7,3.56-2.62,8.17-4.61,13.84-6,5.67-1.38,12.72-2.07,21.15-2.07h81.53c.58-2.91,.94-4.98,1.09-6.21,.14-1.23,.22-2.21,.22-2.94,0-2.91-.87-4.8-2.62-5.67s-4.8-1.31-9.16-1.31h-32.92l5.01-28.34h32.92c16.49,0,28.42,2.54,35.8,7.63,7.38,5.09,11.07,13.16,11.07,24.2,0,1.02-.04,2.18-.11,3.49-.08,1.31-.33,3.34-.77,6.1-.44,2.76-1.06,6.58-1.86,11.45-.8,4.87-1.86,11.37-3.18,19.51-1.46,8.58-3.58,15.77-6.36,21.58-2.78,5.81-6.61,10.54-11.51,14.17-4.9,3.63-10.98,6.21-18.27,7.74-7.28,1.53-16.23,2.29-26.84,2.29h-64.75Zm88.07-50.14h-74.77c-3.05,0-5.38,.76-6.98,2.29-1.6,1.53-2.76,3.81-3.49,6.87-.73,3.35-1.13,5.49-1.2,6.43-.08,.95-.11,1.63-.11,2.07,0,2.04,.62,3.38,1.85,4.03,1.23,.65,3.38,.98,6.43,.98h58.86c5.38,0,9.52-1.12,12.43-3.38,2.91-2.25,4.8-6.07,5.67-11.45l1.31-7.85Z"></path><path style="fill:#f7c586;" d="M1330.95,534.92l11.99-68.45c1.45-8.86,3.78-16.42,6.98-22.67,3.2-6.25,7.41-11.37,12.64-15.37,5.23-4,11.59-6.94,19.08-8.83,7.48-1.89,16.31-2.83,26.49-2.83h21.36l-5.67,31.83-19.84,.44c-6.69,.15-11.55,1.6-14.61,4.36-3.05,2.76-5.16,7.19-6.32,13.3l-11.99,68.23h-40.11Z"></path></g><g><path style="fill:#fff;" d="M671.43,640.96l-.31,1.8c-.26,1.52-.39,2.88-.39,4.08,0,4.48,1.84,6.71,5.52,6.71h39.66l-3.54,20.38h-39.66c-13.12,0-19.67-6.93-19.67-20.8,0-3.12,.32-6.57,.97-10.37l4.16-23.98c3.6-20.78,13.44-31.17,29.51-31.17h39.66l-3.5,20.38h-39.7c-4.67,0-7.62,3.6-8.86,10.79l-.31,1.8h46.65l-3.54,20.38h-46.65Z"></path><path style="fill:#fff;" d="M754.13,630.77l-22.55-43.16h21.73l14.35,27.57,23.91-27.57h21.73l-37.48,43.16,33.82,67.14h-21.69l-25.7-51.49-23.91,27.51h-21.73l37.52-43.16Z"></path><path style="fill:#fff;" d="M841.66,587.61h23.33c13.12,0,19.67,6.93,19.67,20.8,0,3.12-.32,6.57-.97,10.37l-5.21,29.97c-2.9,16.78-12.39,25.18-28.46,25.18h-23.33c-13.12,0-19.67-6.93-19.67-20.8,0-3.12,.32-6.57,.97-10.37l4.16-23.98c3.6-20.78,13.44-31.17,29.51-31.17Zm24.92,31.17c.26-1.52,.39-2.88,.39-4.08,0-4.48-1.84-6.71-5.52-6.71h-23.33c-4.67,0-7.62,3.6-8.86,10.79l-4.16,23.98c-.26,1.52-.39,2.88-.39,4.08,0,4.48,1.84,6.71,5.52,6.71h23.33c4.67,0,7.62-3.6,8.86-10.79l4.16-23.98Z"></path><path style="fill:#fff;" d="M939.22,607.99l-11.43,65.94h-17.11l11.43-65.94h-27.22l3.54-20.38h71.54l-3.54,20.38h-27.22Z"></path><path style="fill:#fff;" d="M979.31,587.61h17.11l-14.97,86.32h-17.11l14.97-86.32Z"></path><path style="fill:#fff;" d="M1058.09,653.55l-3.54,20.38h-39.66c-13.12,0-19.67-6.93-19.67-20.8,0-3.12,.32-6.57,.97-10.37l4.16-23.98c3.6-20.78,13.44-31.17,29.51-31.17h39.66l-3.5,20.38h-39.7c-4.67,0-7.62,3.6-8.86,10.79l-4.16,23.98c-.26,1.52-.39,2.88-.39,4.08,0,4.48,1.84,6.71,5.52,6.71h39.66Z"></path><path style="fill:#fff;" d="M1184.85,653.55l-3.54,20.38h-39.66c-13.12,0-19.67-6.93-19.67-20.8,0-3.12,.32-6.57,.97-10.37l4.16-23.98c3.6-20.78,13.44-31.17,29.51-31.17h39.66l-3.5,20.38h-39.7c-4.67,0-7.62,3.6-8.86,10.79l-4.16,23.98c-.26,1.52-.39,2.88-.39,4.08,0,4.48,1.84,6.71,5.52,6.71h39.66Z"></path><path style="fill:#fff;" d="M1216.39,655.95l-8.94,17.98h-19.21l36.66-73.67c4.2-8.43,9.05-12.65,14.54-12.65h3.89c5.49,0,8.89,4.22,10.19,12.65l11.08,73.67h-19.21l-2.72-17.98h-26.28Zm23.21-20.38l-3.03-20.08-10.03,20.08h13.06Z"></path><path style="fill:#fff;" d="M1330.16,620.58c3.37,0,5.34-1.6,5.91-4.8l.51-3c.08-.44,.12-.86,.12-1.26,0-2.36-1.45-3.54-4.35-3.54h-49.38l3.58-20.38h49.34c12.34,0,18.51,5.85,18.51,17.56,0,2.32-.23,4.86-.7,7.61l-.51,3c-2.57,14.67-9.11,22.84-19.63,24.52l25.82,57.61h-21.62l-25.54-56.95h-17.85l-5.72,32.97h-17.11l9.25-53.35h49.38Z"></path><path style="fill:#fff;" d="M1380.28,640.96c-12.34,0-18.51-5.83-18.51-17.5,0-2.36,.25-4.92,.74-7.67l.51-3c2.9-16.78,11.74-25.18,26.52-25.18h49.38l-3.54,20.38h-49.38c-3.37,0-5.33,1.6-5.87,4.8l-.51,3c-.08,.48-.12,.9-.12,1.26,0,2.36,1.44,3.54,4.32,3.54h27.22c12.34,0,18.51,5.85,18.51,17.56,0,2.32-.23,4.86-.7,7.61l-.54,3c-2.9,16.78-11.74,25.18-26.52,25.18h-49.34l3.5-20.38h49.38c3.37,0,5.33-1.6,5.87-4.8l.54-3c.08-.44,.12-.86,.12-1.26,0-2.36-1.45-3.54-4.35-3.54h-27.22Z"></path></g><polygon style="fill:#f7c586;" points="33.49 646.16 20.78 639 8.47 646.85 10.43 630.88 0 619.9 13.92 617.19 19.78 602.55 26.43 616.85 40.48 618.79 30.67 630.33 33.49 646.16"></polygon><polygon style="fill:#f7c586;" points="594.95 649.63 582.24 642.47 569.93 650.32 571.89 634.35 561.46 623.36 575.38 620.66 581.24 606.02 587.89 620.32 601.94 622.25 592.12 633.79 594.95 649.63"></polygon><polygon style="fill:#fff;" points="168.85 647 156.13 639.83 143.83 647.68 145.79 631.72 135.36 620.73 149.28 618.03 155.14 603.39 161.79 617.69 175.83 619.62 166.02 631.16 168.85 647"></polygon><polygon style="fill:#f7c586;" points="307.73 647.86 295.02 640.69 282.72 648.54 284.67 632.57 274.24 621.59 288.16 618.89 294.02 604.25 300.67 618.54 314.72 620.48 304.91 632.02 307.73 647.86"></polygon><polygon style="fill:#fff;" points="447.97 648.72 435.26 641.56 422.95 649.41 424.91 633.44 414.48 622.45 428.4 619.75 434.26 605.11 440.91 619.41 454.96 621.35 445.14 632.89 447.97 648.72"></polygon></svg>